<svg width="1832" height="600" viewBox="0 0 1832 600" fill="none" xmlns="http://www.w3.org/2000/svg">
<g clip-path="url(#clip0_6321_657)">
<path d="M1755 0H77C34.4741 0 0 34.4741 0 77V523C0 565.526 34.4741 600 77 600H1755C1797.53 600 1832 565.526 1832 523V77C1832 34.4741 1797.53 0 1755 0Z" fill="url(#paint0_linear_6321_657)"/>
<mask id="mask0_6321_657" style="mask-type:luminance" maskUnits="userSpaceOnUse" x="120" y="94" width="405" height="412">
<path d="M524.893 94.6592H120.875V505.671H524.893V94.6592Z" fill="white"/>
</mask>
<g mask="url(#mask0_6321_657)">
<path d="M385.209 217.535C378.423 205.112 368.714 195.507 356.082 188.93C343.45 182.353 328.626 179.012 311.505 179.012C281.96 179.012 258.262 188.721 240.514 208.139C222.767 227.557 213.789 253.448 213.789 285.811C213.789 318.174 223.08 347.301 241.767 366.719C260.454 386.137 286.136 395.846 318.917 395.846C351.698 395.846 360.258 390.104 375.813 378.724C391.264 367.345 402.644 350.955 409.743 329.553H293.861V262.321H492.53V347.196C485.744 369.955 474.26 391.148 458.079 410.774C441.897 430.401 421.331 446.165 396.38 458.275C371.429 470.385 343.346 476.44 312.027 476.44C280.707 476.44 241.976 468.297 212.953 452.116C183.931 435.934 161.381 413.384 145.095 384.571C128.914 355.757 120.875 322.872 120.875 285.811C120.875 248.75 128.914 215.76 145.2 186.738C161.381 157.715 183.931 135.165 212.745 118.879C241.558 102.802 274.444 94.6592 311.505 94.6592C348.566 94.6592 394.187 105.517 424.985 127.231C455.782 148.946 476.139 179.012 486.161 217.535H385.209Z" fill="#727597"/>
<path d="M385.94 218.162C379.154 205.739 369.445 196.134 356.813 189.557C344.181 182.98 329.357 179.639 312.236 179.639C282.691 179.639 258.993 189.348 241.245 208.766C223.498 228.184 214.52 254.075 214.52 286.438C214.52 318.801 223.811 347.928 242.498 367.346C261.185 386.764 286.867 396.473 319.648 396.473C352.429 396.473 360.989 390.731 376.544 379.351C391.995 367.972 403.374 351.582 410.473 330.18H294.592V262.948H493.261V347.823C486.475 370.582 474.991 391.775 458.809 411.401C442.628 431.028 422.062 446.792 397.111 458.902C372.16 471.012 344.077 477.067 312.758 477.067C281.438 477.067 242.707 468.924 213.684 452.743C184.662 436.561 162.112 414.011 145.826 385.198C129.749 356.488 121.606 323.499 121.606 286.542C121.606 249.586 129.645 216.492 145.931 187.469C162.112 158.447 184.662 135.897 213.476 119.611C242.289 103.429 275.279 95.3906 312.236 95.3906C349.192 95.3906 394.918 106.248 425.715 127.963C456.513 149.677 476.87 179.744 486.892 218.266H385.94V218.162Z" fill="#727597"/>
<path d="M386.775 218.892C379.989 206.469 370.28 196.864 357.648 190.287C345.016 183.71 330.192 180.369 313.071 180.369C283.526 180.369 259.828 190.078 242.08 209.496C224.333 228.914 215.355 254.805 215.355 287.168C215.355 319.531 224.646 348.658 243.333 368.076C262.02 387.494 287.702 397.203 320.483 397.203C353.263 397.203 361.824 391.461 377.379 380.081C392.83 368.702 404.209 352.312 411.308 330.91H295.427V263.678H494.096V348.553C487.31 371.312 475.826 392.505 459.644 412.131C443.463 431.758 422.897 447.522 397.946 459.632C372.995 471.742 344.912 477.797 313.593 477.797C282.273 477.797 243.542 469.654 214.519 453.473C185.497 437.291 162.947 414.741 146.661 385.928C130.48 357.218 122.441 324.229 122.441 287.168C122.441 250.107 130.48 217.117 146.766 188.095C162.947 159.072 185.497 136.522 214.311 120.236C243.124 104.159 276.009 96.0161 313.071 96.0161C350.132 96.0161 395.753 106.873 426.55 128.588C457.348 150.303 477.705 180.369 487.727 218.892H386.775Z" fill="#727597"/>
<path d="M387.506 219.623C380.72 207.2 371.011 197.595 358.379 191.018C345.747 184.441 330.923 181.101 313.801 181.101C284.257 181.101 260.559 190.81 242.811 210.227C225.064 229.645 216.085 255.536 216.085 287.899C216.085 320.262 225.377 349.389 244.064 368.807C262.751 388.225 288.433 397.934 321.214 397.934C353.994 397.934 362.555 392.192 378.11 380.813C393.561 369.433 404.94 353.043 412.039 331.642H296.158V264.41H494.826V349.285C488.041 372.043 476.557 393.236 460.375 412.863C444.194 432.489 423.627 448.253 398.676 460.364C373.725 472.474 345.643 478.529 314.323 478.529C283.004 478.529 244.273 470.386 215.25 454.204C186.228 438.023 163.678 415.473 147.392 386.659C131.21 357.845 123.067 324.856 123.067 287.899C123.067 250.942 131.106 217.849 147.392 188.826C163.574 159.804 186.123 137.254 214.937 120.968C243.855 104.891 276.74 96.7476 313.801 96.7476C350.862 96.7476 396.484 107.605 427.281 129.32C458.079 151.034 478.436 181.101 488.458 219.623H387.506Z" fill="#727597"/>
<path d="M388.237 220.249C381.451 207.826 371.742 198.221 359.11 191.644C346.478 185.067 331.653 181.726 314.532 181.726C284.988 181.726 261.29 191.435 243.542 210.853C225.795 230.271 216.816 256.162 216.816 288.525C216.816 320.888 226.108 350.015 244.795 369.433C263.482 388.851 289.164 398.56 321.945 398.56C354.725 398.56 363.286 392.818 378.841 381.438C394.292 370.059 405.671 353.669 412.77 332.267H296.889V265.035H495.557V349.91C488.772 372.669 477.288 393.862 461.106 413.488C444.925 433.115 424.358 448.879 399.407 460.989C374.456 473.099 346.374 479.154 315.054 479.154C283.735 479.154 245.004 471.011 215.981 454.83C186.959 438.648 164.409 416.098 148.123 387.285C131.941 358.471 123.798 325.481 123.798 288.525C123.798 251.568 131.837 218.474 148.123 189.452C164.305 160.429 186.854 137.879 215.668 121.593C244.586 105.516 277.576 97.4775 314.637 97.4775C351.698 97.4775 397.319 108.335 428.117 130.05C458.914 151.764 479.271 181.831 489.294 220.353H388.341L388.237 220.249Z" fill="#727597"/>
<path d="M389.072 220.98C382.286 208.557 372.577 198.952 359.945 192.375C347.313 185.798 332.489 182.458 315.367 182.458C285.823 182.458 262.125 192.167 244.377 211.584C226.63 231.002 217.651 256.893 217.651 289.256C217.651 321.619 226.943 350.746 245.63 370.164C264.317 389.582 289.999 399.291 322.78 399.291C355.56 399.291 364.121 393.549 379.676 382.17C395.127 370.79 406.506 354.4 413.605 332.999H297.724V265.767H496.392V350.642C489.607 373.4 478.123 394.593 461.941 414.22C445.76 433.846 425.193 449.61 400.242 461.721C375.291 473.831 347.209 479.886 315.889 479.886C284.57 479.886 245.839 471.743 216.816 455.561C187.794 439.38 165.244 416.83 148.958 388.016C132.672 359.202 124.738 326.317 124.738 289.256C124.738 252.195 132.776 219.205 149.062 190.183C165.244 161.161 187.794 138.611 216.607 122.325C245.421 106.247 278.306 98.1045 315.367 98.1045C352.428 98.1045 398.05 108.962 428.847 130.676C459.645 152.391 480.002 182.458 490.024 220.98H389.072Z" fill="#727597"/>
<path d="M389.803 221.711C383.017 209.288 373.308 199.683 360.676 193.106C348.044 186.529 333.219 183.188 316.098 183.188C286.554 183.188 262.856 192.897 245.108 212.315C227.36 231.733 218.382 257.624 218.382 289.987C218.382 322.35 227.674 351.477 246.361 370.895C265.048 390.313 290.73 400.022 323.51 400.022C356.291 400.022 364.852 394.28 380.407 382.901C395.858 371.521 407.237 355.131 414.336 333.729H298.455V266.498H497.123V351.373C490.337 374.131 478.854 395.324 462.672 414.951C446.491 434.577 425.924 450.341 400.973 462.451C376.022 474.561 347.939 480.617 316.62 480.617C285.301 480.617 246.57 472.474 217.547 456.292C188.525 440.11 165.975 417.561 149.689 388.747C133.507 359.933 125.364 326.944 125.364 289.987C125.364 253.03 133.403 219.936 149.689 190.914C165.87 161.891 188.42 139.342 217.234 123.056C246.048 106.874 278.933 98.731 315.994 98.731C353.055 98.731 398.677 109.588 429.474 131.303C460.271 153.018 480.629 183.084 490.651 221.607H389.698L389.803 221.711Z" fill="#727597"/>
<path d="M390.638 222.337C383.852 209.914 374.143 200.309 361.511 193.732C348.879 187.155 334.054 183.814 316.933 183.814C287.389 183.814 263.691 193.523 245.943 212.941C228.195 232.359 219.217 258.25 219.217 290.613C219.217 322.976 228.509 352.103 247.196 371.521C265.883 390.939 291.565 400.648 324.345 400.648C357.126 400.648 365.687 394.906 381.242 383.527C396.693 372.147 408.072 355.757 415.171 334.355H299.29V267.124H497.958V351.999C491.172 374.757 479.689 395.95 463.507 415.577C447.326 435.203 426.759 450.967 401.808 463.077C376.857 475.187 348.774 481.242 317.455 481.242C286.136 481.242 247.405 473.1 218.382 456.918C189.36 440.736 166.81 418.186 150.524 389.373C134.342 360.559 126.199 327.57 126.199 290.613C126.199 253.656 134.238 220.562 150.524 191.54C166.705 162.517 189.255 139.968 218.069 123.682C246.883 107.5 279.768 99.3569 316.829 99.3569C353.89 99.3569 399.512 110.214 430.309 131.929C461.106 153.644 481.463 183.71 491.486 222.233H390.533L390.638 222.337Z" fill="#727597"/>
<path d="M391.368 223.068C384.583 210.645 374.874 201.04 362.241 194.463C349.609 187.886 334.785 184.545 317.664 184.545C288.119 184.545 264.421 194.254 246.674 213.672C228.926 233.09 219.948 258.981 219.948 291.344C219.948 323.707 229.239 352.834 247.926 372.252C266.613 391.67 292.295 401.379 325.076 401.379C357.857 401.379 366.417 395.637 381.973 384.258C397.423 372.878 408.803 356.488 415.902 335.086H300.021V267.854H498.689V352.73C491.903 375.488 480.419 396.681 464.238 416.308C448.056 435.934 427.49 451.698 402.539 463.808C377.588 475.918 349.505 481.973 318.186 481.973C286.867 481.973 248.135 473.83 219.113 457.649C190.09 441.467 167.54 418.917 151.254 390.104C134.968 361.29 127.034 328.405 127.034 291.344C127.034 254.283 135.073 221.293 151.359 192.271C167.54 163.248 190.09 140.698 218.904 124.412C247.718 108.231 280.603 100.088 317.664 100.088C354.725 100.088 400.347 110.945 431.144 132.66C461.941 154.375 482.298 184.441 492.321 222.964H391.368V223.068Z" fill="#727597"/>
<path d="M392.099 223.798C385.313 211.375 375.604 201.771 362.972 195.194C350.34 188.617 335.516 185.276 318.395 185.276C288.85 185.276 265.152 194.985 247.404 214.403C229.657 233.821 220.679 259.711 220.679 292.074C220.679 324.438 229.97 353.564 248.657 372.982C267.344 392.4 293.026 402.109 325.807 402.109C358.588 402.109 367.148 396.367 382.703 384.988C398.154 373.609 409.534 357.218 416.633 335.817H300.751V268.585H499.42V353.46C492.634 376.219 481.15 397.411 464.969 417.038C448.787 436.665 428.221 452.429 403.27 464.539C378.319 476.649 350.236 482.704 318.917 482.704C287.597 482.704 248.866 474.561 219.844 458.379C190.821 442.198 168.271 419.648 151.985 390.834C135.804 362.021 127.661 329.031 127.661 292.074C127.661 255.118 135.699 222.024 151.985 193.001C168.167 163.979 190.717 141.429 219.53 125.143C248.344 108.961 281.229 100.818 318.29 100.818C355.351 100.818 400.973 111.676 431.77 133.39C462.567 155.105 482.925 185.171 492.947 223.694H391.995L392.099 223.798Z" fill="#727597"/>
<path d="M392.935 224.425C386.149 212.002 376.44 202.397 363.808 195.82C351.176 189.243 336.351 185.902 319.23 185.902C289.686 185.902 265.987 195.611 248.24 215.029C230.492 234.447 221.514 260.338 221.514 292.701C221.514 325.064 230.806 354.191 249.493 373.609C268.18 393.027 293.862 402.736 326.642 402.736C359.423 402.736 367.984 396.994 383.539 385.614C398.99 374.235 410.369 357.845 417.468 336.443H301.587V269.211H500.255V354.086C493.469 376.845 481.986 398.038 465.804 417.664C449.622 437.291 429.056 453.055 404.105 465.165C379.154 477.275 351.071 483.33 319.752 483.33C288.433 483.33 249.701 475.187 220.679 459.006C191.656 442.824 169.107 420.274 152.821 391.461C136.639 362.647 128.496 329.657 128.496 292.701C128.496 255.744 136.535 222.65 152.821 193.628C169.002 164.605 191.552 142.055 220.366 125.769C249.179 109.588 282.065 101.445 319.126 101.445C356.187 101.445 401.808 112.302 432.606 134.017C463.403 155.731 483.76 185.798 493.783 224.321H392.83L392.935 224.425Z" fill="#727597"/>
<path d="M393.665 225.156C386.879 212.733 377.17 203.129 364.538 196.551C351.906 189.974 337.082 186.634 319.961 186.634C290.416 186.634 266.718 196.343 248.97 215.761C231.223 235.179 222.245 261.069 222.245 293.432C222.245 325.795 231.536 354.922 250.223 374.34C268.91 393.758 294.592 403.467 327.373 403.467C360.154 403.467 368.714 397.725 384.269 386.346C399.72 374.967 411.099 358.576 418.198 337.175H302.317V269.943H500.986V354.818C494.2 377.577 482.716 398.769 466.534 418.396C450.353 438.023 429.787 453.787 404.836 465.897C379.885 478.007 351.802 484.062 320.483 484.062C289.163 484.062 250.432 475.919 221.409 459.737C192.387 443.556 169.837 421.006 153.551 392.192C137.37 363.378 129.227 330.389 129.227 293.432C129.227 256.476 137.265 223.382 153.551 194.359C169.733 165.337 192.283 142.787 221.096 126.501C249.91 110.319 282.795 102.176 319.856 102.176C356.917 102.176 402.539 113.034 433.336 134.748C464.133 156.463 484.491 186.529 494.513 225.052H393.561L393.665 225.156Z" fill="#727597"/>
<path d="M394.396 225.887C387.61 213.464 377.901 203.859 365.269 197.282C352.637 190.705 337.813 187.364 320.692 187.364C291.147 187.364 267.449 197.073 249.701 216.491C231.954 235.909 222.976 261.8 222.976 294.163C222.976 326.526 232.267 355.653 250.954 375.071C269.641 394.489 295.323 404.198 328.104 404.198C360.885 404.198 369.445 398.456 385 387.076C400.451 375.697 411.83 359.307 418.929 337.905H303.048V270.673H501.717V355.548C494.931 378.307 483.447 399.5 467.265 419.126C451.084 438.753 430.518 454.517 405.567 466.627C380.616 478.737 352.533 484.792 321.213 484.792C289.894 484.792 251.163 476.649 222.14 460.468C193.118 444.286 170.568 421.736 154.282 392.923C137.996 364.109 129.958 331.119 129.958 294.163C129.958 257.206 137.996 224.112 154.282 195.09C170.464 166.067 193.014 143.517 221.827 127.231C250.641 111.05 283.526 102.907 320.587 102.907C357.648 102.907 403.27 113.764 434.067 135.479C464.864 157.193 485.222 187.26 495.244 225.782H394.292L394.396 225.887Z" fill="#727597"/>
<path d="M395.231 226.513C388.445 214.09 378.736 204.485 366.104 197.908C353.472 191.331 338.648 187.991 321.526 187.991C291.982 187.991 268.284 197.7 250.536 217.118C232.789 236.535 223.811 262.426 223.811 294.789C223.811 327.152 233.102 356.279 251.789 375.697C270.476 395.115 296.158 404.824 328.939 404.824C361.719 404.824 370.28 399.082 385.835 387.703C401.286 376.324 412.665 359.933 419.764 338.532H303.883V271.3H502.552V356.175C495.766 378.933 484.282 400.126 468.1 419.753C451.919 439.38 431.353 455.144 406.402 467.254C381.451 479.364 353.368 485.419 322.048 485.419C290.729 485.419 251.998 477.276 222.975 461.094C193.953 444.913 171.403 422.363 155.117 393.549C138.935 364.735 130.792 331.746 130.792 294.789C130.792 257.833 138.831 224.739 155.117 195.716C171.299 166.694 193.848 144.144 222.662 127.858C251.476 111.676 284.361 103.533 321.422 103.533C358.483 103.533 404.105 114.391 434.902 136.105C465.699 157.82 486.057 187.886 496.079 226.409H395.127L395.231 226.513Z" fill="#727597"/>
<path d="M395.962 227.244C389.176 214.82 379.467 205.216 366.835 198.639C354.203 192.062 339.379 188.721 322.257 188.721C292.713 188.721 269.015 198.43 251.267 217.848C233.52 237.266 224.541 263.156 224.541 295.52C224.541 327.883 233.833 357.01 252.52 376.428C271.207 395.846 296.889 405.554 329.67 405.554C362.45 405.554 371.011 399.813 386.566 388.433C402.017 377.054 413.396 360.664 420.495 339.262H304.614V272.03H503.282V356.905C496.497 379.664 485.013 400.857 468.831 420.483C452.65 440.11 432.083 455.874 407.132 467.984C382.182 480.094 354.099 486.149 322.779 486.149C291.46 486.149 252.729 478.006 223.706 461.825C194.684 445.643 172.134 423.093 155.848 394.28C139.666 365.466 131.523 332.476 131.523 295.52C131.523 258.563 139.562 225.469 155.848 196.447C172.03 167.424 194.579 144.874 223.393 128.588C252.207 112.407 285.092 104.264 322.153 104.264C359.214 104.264 404.836 115.121 435.633 136.836C466.43 158.55 486.788 188.617 496.81 227.139H395.858L395.962 227.244Z" fill="#727597"/>
<path d="M396.797 227.975C390.011 215.551 380.302 205.947 367.67 199.37C355.038 192.793 340.214 189.452 323.092 189.452C293.548 189.452 269.85 199.161 252.102 218.579C234.355 237.997 225.376 263.887 225.376 296.251C225.376 328.614 234.668 357.741 253.355 377.159C272.042 396.576 297.724 406.285 330.505 406.285C363.285 406.285 371.846 400.544 387.401 389.164C402.852 377.785 414.231 361.395 421.33 339.993H305.449V272.761H504.117V357.636C497.332 380.395 485.848 401.588 469.666 421.214C453.485 440.841 432.918 456.605 407.967 468.715C383.016 480.825 354.934 486.88 323.614 486.88C292.295 486.88 253.564 478.737 224.541 462.556C195.519 446.374 172.969 423.824 156.683 395.011C140.397 366.197 132.358 333.207 132.358 296.251C132.358 259.294 140.397 226.2 156.683 197.178C172.865 168.155 195.414 145.605 224.228 129.319C253.042 113.138 285.927 104.995 322.988 104.995C360.049 104.995 405.671 115.852 436.468 137.567C467.265 159.281 487.623 189.348 497.645 227.87H396.693L396.797 227.975Z" fill="#727597"/>
<path d="M397.528 228.601C390.742 216.177 381.033 206.573 368.401 199.996C355.769 193.419 340.945 190.078 323.823 190.078C294.279 190.078 270.581 199.787 252.833 219.205C235.086 238.623 226.107 264.513 226.107 296.877C226.107 329.24 235.399 358.367 254.086 377.785C272.773 397.202 298.455 406.911 331.236 406.911C364.016 406.911 372.577 401.17 388.132 389.79C403.583 378.411 414.962 362.021 422.061 340.619H306.18V273.387H504.848V358.262C498.063 381.021 486.579 402.214 470.397 421.84C454.216 441.467 433.649 457.231 408.698 469.341C383.747 481.451 355.665 487.506 324.345 487.506C293.026 487.506 254.295 479.363 225.272 463.182C196.25 447 173.7 424.45 157.414 395.636C141.128 366.823 133.089 333.833 133.089 296.877C133.089 259.92 141.128 226.826 157.414 197.803C173.596 168.781 196.145 146.231 224.959 129.945C253.773 113.764 286.658 105.621 323.719 105.621C360.78 105.621 406.402 116.478 437.199 138.193C467.996 159.907 488.354 189.974 498.376 228.496H397.423L397.528 228.601Z" fill="#727597"/>
<path d="M398.259 229.332C391.473 216.909 381.764 207.304 369.132 200.727C356.5 194.15 341.675 190.81 324.554 190.81C295.01 190.81 271.312 200.518 253.564 219.936C235.817 239.354 226.838 265.245 226.838 297.608C226.838 329.971 236.13 359.098 254.817 378.516C273.504 397.934 299.186 407.643 331.967 407.643C364.747 407.643 373.308 401.901 388.863 390.522C404.314 379.142 415.693 362.752 422.792 341.351H306.911V274.119H505.579V358.994C498.794 381.752 487.31 402.945 471.128 422.572C454.947 442.198 434.38 457.962 409.429 470.072C384.478 482.183 356.396 488.238 325.076 488.238C293.757 488.238 255.026 480.095 226.003 463.913C196.981 447.731 174.431 425.182 158.145 396.368C141.963 367.554 133.82 334.565 133.82 297.608C133.82 260.651 141.859 227.557 158.145 198.535C174.326 169.512 196.876 146.963 225.69 130.677C254.504 114.495 287.389 106.352 324.45 106.352C361.511 106.352 407.133 117.209 437.93 138.924C468.727 160.639 489.085 190.705 499.107 229.228H398.154L398.259 229.332Z" fill="#727597"/>
<path d="M399.094 230.062C392.308 217.639 382.599 208.034 369.967 201.457C357.335 194.88 342.51 191.54 325.389 191.54C295.845 191.54 272.147 201.248 254.399 220.666C236.652 240.084 227.673 265.975 227.673 298.338C227.673 330.701 236.965 359.828 255.652 379.246C274.339 398.664 300.021 408.373 332.801 408.373C365.582 408.373 374.143 402.631 389.698 391.252C405.149 379.872 416.528 363.482 423.627 342.081H307.746V274.849H506.414V359.724C499.628 382.482 488.145 403.675 471.963 423.302C455.782 442.928 435.215 458.692 410.264 470.802C385.313 482.913 357.23 488.968 325.911 488.968C294.592 488.968 255.861 480.825 226.838 464.643C197.816 448.461 175.266 425.912 158.98 397.098C142.694 368.284 134.655 335.295 134.655 298.338C134.655 261.381 142.694 228.287 158.98 199.265C175.161 170.242 197.711 147.693 226.525 131.407C255.339 115.225 288.224 107.082 325.285 107.082C362.346 107.082 407.968 117.939 438.765 139.654C469.562 161.369 489.92 191.435 499.942 229.958H398.989L399.094 230.062Z" fill="#727597"/>
<path d="M399.825 230.689C393.039 218.266 383.33 208.661 370.698 202.084C358.066 195.507 343.241 192.166 326.12 192.166C296.576 192.166 272.878 201.875 255.13 221.293C237.382 240.711 228.404 266.602 228.404 298.965C228.404 331.328 237.696 360.455 256.383 379.873C275.07 399.291 300.752 409 333.532 409C366.313 409 374.874 403.258 390.429 391.879C405.88 380.499 417.259 364.109 424.358 342.707H308.477V275.476H507.145V360.351C500.359 383.109 488.876 404.302 472.694 423.929C456.513 443.555 435.946 459.319 410.995 471.429C386.044 483.54 357.961 489.595 326.642 489.595C295.323 489.595 256.592 481.452 227.569 465.27C198.547 449.088 175.997 426.539 159.711 397.725C143.425 368.911 135.386 335.922 135.386 298.965C135.386 262.008 143.425 228.914 159.711 199.892C175.892 170.869 198.442 148.32 227.256 132.034C256.07 115.852 288.955 107.709 326.016 107.709C363.077 107.709 408.699 118.566 439.496 140.281C470.293 161.996 490.65 192.062 500.673 230.585H399.72L399.825 230.689Z" fill="#727597"/>
<path d="M400.555 231.42C393.769 218.997 384.06 209.392 371.428 202.815C358.796 196.238 343.972 192.897 326.851 192.897C297.306 192.897 273.608 202.606 255.86 222.024C238.113 241.442 229.135 267.333 229.135 299.696C229.135 332.059 238.426 361.186 257.113 380.604C275.8 400.022 301.482 409.731 334.263 409.731C367.044 409.731 375.604 403.989 391.159 392.61C406.61 381.23 417.99 364.84 425.089 343.438H309.208V276.207H507.876V361.082C501.09 383.84 489.606 405.033 473.425 424.66C457.243 444.286 436.677 460.05 411.726 472.16C386.775 484.27 358.692 490.326 327.373 490.326C296.053 490.326 257.322 482.183 228.3 466.001C199.277 449.819 176.727 427.269 160.441 398.456C144.155 369.642 136.117 336.653 136.117 299.696C136.117 262.739 144.155 229.645 160.441 200.623C176.623 171.6 199.173 149.051 227.986 132.765C256.8 116.583 289.685 108.44 326.746 108.44C363.807 108.44 409.429 119.297 440.226 141.012C471.023 162.727 491.381 192.793 501.403 231.316H400.451L400.555 231.42Z" fill="#727597"/>
<path d="M401.391 232.151C394.605 219.727 384.896 210.123 372.264 203.546C359.632 196.969 344.807 193.628 327.686 193.628C298.142 193.628 274.443 203.337 256.696 222.755C238.948 242.173 229.97 268.063 229.97 300.426C229.97 332.79 239.262 361.916 257.949 381.334C276.636 400.752 302.318 410.461 335.098 410.461C367.879 410.461 376.44 404.719 391.995 393.34C407.446 381.961 418.825 365.57 425.924 344.169H310.043V276.937H508.711V361.812C501.925 384.571 490.442 405.763 474.26 425.39C458.078 445.017 437.512 460.781 412.561 472.891C387.61 485.001 359.527 491.056 328.208 491.056C296.889 491.056 258.157 482.913 229.135 466.731C200.113 450.55 177.563 428 161.277 399.186C144.991 370.373 136.952 337.383 136.952 300.426C136.952 263.47 144.991 230.376 161.277 201.353C177.458 172.331 200.008 149.781 228.822 133.495C257.636 117.313 290.521 109.17 327.582 109.17C364.643 109.17 410.264 120.028 441.062 141.742C471.859 163.457 492.216 193.523 502.239 232.046H401.286L401.391 232.151Z" fill="#727597"/>
<path d="M402.121 232.777C395.335 220.354 385.626 210.749 372.994 204.172C360.362 197.595 345.538 194.254 328.417 194.254C298.872 194.254 275.174 203.963 257.426 223.381C239.679 242.799 230.701 268.69 230.701 301.053C230.701 333.416 239.992 362.543 258.679 381.961C277.366 401.379 303.048 411.088 335.829 411.088C368.61 411.088 377.17 405.346 392.725 393.967C408.176 382.587 419.555 366.197 426.655 344.795H310.773V277.563H509.442V362.439C502.656 385.197 491.172 406.39 474.991 426.016C458.809 445.643 438.243 461.407 413.292 473.517C388.341 485.627 360.258 491.682 328.939 491.682C297.619 491.682 258.888 483.539 229.865 467.358C200.843 451.176 178.293 428.626 162.007 399.813C145.721 370.999 137.683 338.01 137.683 301.053C137.683 264.096 145.721 231.002 162.007 201.98C178.189 172.957 200.739 150.407 229.552 134.121C258.366 117.94 291.251 109.797 328.312 109.797C365.373 109.797 410.995 120.654 441.792 142.369C472.589 164.084 492.947 194.15 502.969 232.673H402.017L402.121 232.777Z" fill="#727597"/>
<path d="M402.957 233.508C396.171 221.085 386.462 211.481 373.83 204.904C361.198 198.327 346.373 194.986 329.252 194.986C299.708 194.986 276.009 204.695 258.262 224.113C240.514 243.531 231.536 269.421 231.536 301.784C231.536 334.147 240.827 363.274 259.515 382.692C278.202 402.11 303.884 411.819 336.664 411.819C369.445 411.819 378.006 406.077 393.561 394.698C409.012 383.319 420.391 366.928 427.49 345.527H311.609V278.295H510.277V363.17C503.491 385.929 492.008 407.121 475.826 426.748C459.644 446.375 439.078 462.139 414.127 474.249C389.176 486.359 361.093 492.414 329.774 492.414C298.455 492.414 259.723 484.271 230.701 468.089C201.678 451.908 179.129 429.358 162.843 400.544C146.661 371.731 138.518 338.741 138.518 301.784C138.518 264.828 146.557 231.734 162.843 202.711C179.024 173.689 201.574 151.139 230.388 134.853C259.201 118.671 292.087 110.528 329.148 110.528C366.209 110.528 411.83 121.386 442.628 143.1C473.425 164.815 493.782 194.881 503.804 233.404H402.852L402.957 233.508Z" fill="#727597"/>
<path d="M403.688 234.239C396.902 221.816 387.193 212.211 374.561 205.634C361.929 199.057 347.104 195.716 329.983 195.716C300.439 195.716 276.74 205.425 258.993 224.843C241.245 244.261 232.267 270.152 232.267 302.515C232.267 334.878 241.558 364.005 260.246 383.423C278.933 402.841 304.614 412.55 337.395 412.55C370.176 412.55 378.737 406.808 394.292 395.428C409.743 384.049 421.122 367.659 428.221 346.257H312.34V279.025H511.008V363.9C504.222 386.659 492.739 407.852 476.557 427.478C460.375 447.105 439.809 462.869 414.858 474.979C389.907 487.089 361.824 493.144 330.505 493.144C299.186 493.144 260.454 485.001 231.432 468.82C202.409 452.638 179.86 430.088 163.574 401.275C147.288 372.461 139.249 339.471 139.249 302.515C139.249 265.558 147.288 232.464 163.574 203.442C179.755 174.419 202.305 151.869 231.119 135.583C259.932 119.402 292.818 111.259 329.879 111.259C366.94 111.259 412.561 122.116 443.359 143.831C474.156 165.545 494.513 195.612 504.535 234.134H403.583L403.688 234.239Z" fill="#727597"/>
<path d="M404.419 234.865C397.633 222.442 387.924 212.838 375.292 206.26C362.66 199.683 347.835 196.343 330.714 196.343C301.17 196.343 277.471 206.052 259.724 225.47C241.976 244.888 232.998 270.778 232.998 303.141C232.998 335.504 242.289 364.631 260.977 384.049C279.664 403.467 305.345 413.176 338.126 413.176C370.907 413.176 379.468 407.434 395.023 396.055C410.474 384.676 421.853 368.285 428.952 346.884H313.071V279.652H511.739V364.527C504.953 387.286 493.469 408.478 477.288 428.105C461.106 447.732 440.54 463.496 415.589 475.606C390.638 487.716 362.555 493.771 331.236 493.771C299.917 493.771 261.185 485.628 232.163 469.446C203.14 453.265 180.591 430.715 164.305 401.901C148.019 373.087 139.98 340.098 139.98 303.141C139.98 266.185 148.019 233.091 164.305 204.068C180.486 175.046 203.036 152.496 231.85 136.21C260.663 120.028 293.548 111.885 330.61 111.885C367.671 111.885 413.292 122.743 444.09 144.457C474.887 166.172 495.244 196.238 505.266 234.761H404.314L404.419 234.865Z" fill="#727597"/>
<path d="M405.253 235.596C398.468 223.173 388.759 213.568 376.127 206.991C363.495 200.414 348.67 197.073 331.549 197.073C302.004 197.073 278.306 206.782 260.559 226.2C242.811 245.618 233.833 271.509 233.833 303.872C233.833 336.235 243.124 365.362 261.811 384.78C280.499 404.198 306.18 413.907 338.961 413.907C371.742 413.907 380.302 408.165 395.858 396.785C411.309 385.406 422.688 369.016 429.787 347.614H313.906V280.382H512.574V365.257C505.788 388.016 494.304 409.209 478.123 428.835C461.941 448.462 441.375 464.226 416.424 476.336C391.473 488.446 363.39 494.501 332.071 494.501C300.752 494.501 262.02 486.358 232.998 470.177C203.975 453.995 181.426 431.445 165.14 402.632C148.854 373.818 140.815 340.828 140.815 303.872C140.815 266.915 148.854 233.821 165.14 204.799C181.321 175.776 203.871 153.226 232.685 136.94C261.498 120.759 294.383 112.616 331.445 112.616C368.506 112.616 414.127 123.473 444.924 145.188C475.722 166.902 496.079 196.969 506.101 235.491H405.149L405.253 235.596Z" fill="#727597"/>
<path d="M405.984 236.326C399.199 223.903 389.49 214.298 376.858 207.721C364.225 201.144 349.401 197.803 332.28 197.803C302.735 197.803 279.037 207.512 261.29 226.93C243.542 246.348 234.564 272.239 234.564 304.602C234.564 336.965 243.855 366.092 262.542 385.51C281.23 404.928 306.911 414.637 339.692 414.637C372.473 414.637 381.033 408.895 396.589 397.515C412.039 386.136 423.419 369.746 430.518 348.344H314.637V281.112H513.305V365.987C506.519 388.746 495.035 409.939 478.854 429.565C462.672 449.192 442.106 464.956 417.155 477.066C392.204 489.176 364.121 495.231 332.802 495.231C301.483 495.231 262.751 487.088 233.729 470.907C204.706 454.725 182.156 432.175 165.87 403.362C149.584 374.548 141.546 341.558 141.546 304.602C141.546 267.645 149.584 234.551 165.87 205.529C182.052 176.506 204.602 153.956 233.416 137.67C262.229 121.489 295.114 113.346 332.175 113.346C369.237 113.346 414.858 124.203 445.655 145.918C476.453 167.632 496.81 197.699 506.832 236.221H405.88L405.984 236.326Z" fill="#727597"/>
<path d="M406.819 236.953C400.034 224.529 390.325 214.925 377.693 208.348C365.06 201.771 350.236 198.43 333.115 198.43C303.57 198.43 279.872 208.139 262.125 227.557C244.377 246.975 235.399 272.865 235.399 305.229C235.399 337.592 244.69 366.719 263.377 386.137C282.065 405.555 307.746 415.263 340.527 415.263C373.308 415.263 381.868 409.522 397.424 398.142C412.874 386.763 424.254 370.373 431.353 348.971H315.472V281.739H514.14V366.614C507.354 389.373 495.87 410.566 479.689 430.192C463.507 449.819 442.941 465.583 417.99 477.693C393.039 489.803 364.956 495.858 333.637 495.858C302.318 495.858 263.586 487.715 234.564 471.534C205.541 455.352 182.991 432.802 166.705 403.989C150.419 375.175 142.381 342.185 142.381 305.229C142.381 268.272 150.419 235.178 166.705 206.156C182.887 177.133 205.437 154.583 234.251 138.297C263.064 122.116 295.949 113.973 333.01 113.973C370.072 113.973 415.693 124.83 446.49 146.545C477.288 168.259 497.645 198.326 507.667 236.848H406.715L406.819 236.953Z" fill="#727597"/>
<path d="M407.55 237.684C400.765 225.26 391.056 215.656 378.423 209.079C365.791 202.502 350.967 199.161 333.846 199.161C304.301 199.161 280.603 208.87 262.856 228.288C245.108 247.706 236.13 273.596 236.13 305.96C236.13 338.323 245.421 367.45 264.108 386.868C282.795 406.285 308.477 415.994 341.258 415.994C374.039 415.994 382.599 410.253 398.155 398.873C413.605 387.494 424.985 371.104 432.084 349.702H316.203V282.47H514.871V367.345C508.085 390.104 496.601 411.297 480.42 430.923C464.238 450.55 443.672 466.314 418.721 478.424C393.77 490.534 365.687 496.589 334.368 496.589C303.049 496.589 264.317 488.446 235.295 472.265C206.272 456.083 183.722 433.533 167.436 404.719C151.15 375.906 143.112 342.916 143.112 305.96C143.112 269.003 151.15 235.909 167.436 206.886C183.618 177.864 206.168 155.314 234.982 139.028C263.795 122.847 296.68 114.704 333.741 114.704C370.802 114.704 416.424 125.561 447.221 147.276C478.019 168.99 498.376 199.057 508.398 237.579H407.446L407.55 237.684Z" fill="#727597"/>
<path d="M408.281 238.414C401.495 225.991 391.786 216.386 379.154 209.809C366.522 203.232 351.697 199.892 334.576 199.892C305.032 199.892 281.334 209.601 263.586 229.018C245.839 248.436 236.86 274.327 236.86 306.69C236.86 339.053 246.152 368.18 264.839 387.598C283.526 407.016 309.208 416.725 341.988 416.725C374.769 416.725 383.33 410.983 398.885 399.604C414.336 388.224 425.715 371.834 432.814 350.433H316.933V283.201H515.601V368.076C508.815 390.834 497.332 412.027 481.15 431.654C464.969 451.28 444.402 467.044 419.451 479.155C394.5 491.265 366.417 497.32 335.098 497.32C303.779 497.32 265.048 489.177 236.025 472.995C207.003 456.813 184.453 434.264 168.167 405.45C151.985 376.636 143.842 343.647 143.842 306.69C143.842 269.733 151.881 236.639 168.167 207.617C184.348 178.594 206.898 156.045 235.712 139.759C264.526 123.577 297.411 115.434 334.472 115.434C371.533 115.434 417.155 126.291 447.952 148.006C478.749 169.721 499.107 199.787 509.129 238.31H408.176L408.281 238.414Z" fill="#727597"/>
<path d="M409.116 239.041C402.33 226.617 392.621 217.013 379.989 210.436C367.357 203.859 352.533 200.518 335.412 200.518C305.867 200.518 282.169 210.227 264.422 229.645C246.674 249.063 237.696 274.953 237.696 307.317C237.696 339.68 246.987 368.807 265.674 388.224C284.361 407.642 310.043 417.351 342.824 417.351C375.605 417.351 384.165 411.61 399.721 400.23C415.171 388.851 426.551 372.46 433.65 351.059H317.769V283.827H516.437V368.702C509.651 391.461 498.167 412.653 481.986 432.28C465.804 451.907 445.238 467.671 420.287 479.781C395.336 491.891 367.253 497.946 335.934 497.946C304.614 497.946 265.883 489.803 236.861 473.622C207.838 457.44 185.288 434.89 169.002 406.076C152.716 377.263 144.678 344.273 144.678 307.317C144.678 270.36 152.716 237.266 169.002 208.243C185.184 179.221 207.734 156.671 236.547 140.385C265.361 124.204 298.246 116.061 335.307 116.061C372.368 116.061 417.99 126.918 448.787 148.633C479.585 170.347 499.942 200.414 509.964 238.936H409.012L409.116 239.041Z" fill="#727597"/>
<path d="M409.847 239.772C403.061 227.349 393.352 217.744 380.72 211.167C368.088 204.59 353.263 201.249 336.142 201.249C306.598 201.249 282.9 210.958 265.152 230.376C247.404 249.794 238.426 275.685 238.426 308.048C238.426 340.411 247.718 369.538 266.405 388.956C285.092 408.374 310.774 418.083 343.554 418.083C376.335 418.083 384.896 412.341 400.451 400.962C415.902 389.582 427.281 373.192 434.38 351.79H318.499V284.559H517.167V369.434C510.381 392.192 498.898 413.385 482.716 433.012C466.535 452.638 445.968 468.402 421.017 480.512C396.066 492.623 367.983 498.678 336.664 498.678C305.345 498.678 266.614 490.535 237.591 474.353C208.569 458.171 186.019 435.622 169.733 406.808C153.447 377.994 145.408 345.005 145.408 308.048C145.408 271.091 153.447 237.997 169.733 208.975C185.914 179.952 208.464 157.403 237.278 141.117C266.092 124.935 298.977 116.792 336.038 116.792C373.099 116.792 418.721 127.649 449.518 149.364C480.315 171.079 500.672 201.145 510.695 239.668H409.742L409.847 239.772Z" fill="#727597"/>
<path d="M410.578 240.503C403.792 228.079 394.083 218.475 381.451 211.898C368.819 205.321 353.994 201.98 336.873 201.98C307.329 201.98 283.63 211.689 265.883 231.107C248.135 250.525 239.157 276.415 239.157 308.778C239.157 341.142 248.449 370.269 267.136 389.686C285.823 409.104 311.505 418.813 344.285 418.813C377.066 418.813 385.627 413.071 401.182 401.692C416.633 390.313 428.012 373.922 435.111 352.521H319.23V285.289H517.898V370.164C511.112 392.923 499.629 414.115 483.447 433.742C467.265 453.369 446.699 469.133 421.748 481.243C396.797 493.353 368.714 499.408 337.395 499.408C306.076 499.408 267.345 491.265 238.322 475.083C209.3 458.902 186.75 436.352 170.464 407.538C154.178 378.725 146.139 345.735 146.139 308.778C146.139 271.822 154.178 238.728 170.464 209.705C186.645 180.683 209.195 158.133 238.009 141.847C266.823 125.665 299.708 117.522 336.769 117.522C373.83 117.522 419.451 128.38 450.249 150.094C481.046 171.809 501.403 201.876 511.426 240.398H410.473L410.578 240.503Z" fill="#727597"/>
<path d="M411.413 241.129C404.627 228.706 394.918 219.101 382.286 212.524C369.654 205.947 354.829 202.606 337.708 202.606C308.164 202.606 284.465 212.315 266.718 231.733C248.97 251.151 239.992 277.042 239.992 309.405C239.992 341.768 249.284 370.895 267.971 390.313C286.658 409.731 312.34 419.44 345.12 419.44C377.901 419.44 386.462 413.698 402.017 402.319C417.468 390.939 428.847 374.549 435.946 353.147H320.065V285.915H518.733V370.791C511.947 393.549 500.464 414.742 484.282 434.369C468.1 453.995 447.534 469.759 422.583 481.869C397.632 493.979 369.549 500.034 338.23 500.034C306.911 500.034 268.179 491.892 239.157 475.71C210.135 459.528 187.585 436.978 171.299 408.165C155.013 379.351 146.974 346.362 146.974 309.405C146.974 272.448 155.013 239.354 171.299 210.332C187.48 181.309 210.03 158.76 238.844 142.474C267.657 126.292 300.543 118.149 337.604 118.149C374.665 118.149 420.286 129.006 451.084 150.721C481.881 172.436 502.238 202.502 512.261 241.025H411.308L411.413 241.129Z" fill="#727597"/>
<path d="M412.144 241.859C405.358 229.436 395.649 219.832 383.017 213.255C370.385 206.678 355.56 203.337 338.439 203.337C308.895 203.337 285.196 213.046 267.449 232.464C249.701 251.882 240.723 277.772 240.723 310.135C240.723 342.499 250.015 371.625 268.702 391.043C287.389 410.461 313.071 420.17 345.851 420.17C378.632 420.17 387.193 414.428 402.748 403.049C418.199 391.67 429.578 375.279 436.677 353.878H320.796V286.646H519.464V371.521C512.678 394.28 501.195 415.472 485.013 435.099C468.831 454.726 448.265 470.49 423.314 482.6C398.363 494.71 370.28 500.765 338.961 500.765C307.642 500.765 268.91 492.622 239.888 476.44C210.865 460.259 188.316 437.709 172.03 408.895C155.744 380.082 147.705 347.092 147.705 310.135C147.705 273.179 155.744 240.085 172.03 211.062C188.211 182.04 210.761 159.49 239.575 143.204C268.388 127.022 301.274 118.879 338.335 118.879C375.396 118.879 421.017 129.737 451.815 151.451C482.612 173.166 502.969 203.232 512.991 241.755H412.039L412.144 241.859Z" fill="#727597"/>
<path d="M412.979 242.591C406.193 230.168 396.484 220.563 383.852 213.986C371.22 207.409 356.395 204.068 339.274 204.068C309.73 204.068 286.031 213.777 268.284 233.195C250.536 252.613 241.558 278.504 241.558 310.867C241.558 343.23 250.849 372.357 269.537 391.775C288.224 411.193 313.905 420.902 346.686 420.902C379.467 420.902 388.028 415.16 403.583 403.78C419.034 392.401 430.413 376.011 437.512 354.609H321.631V287.377H520.299V372.252C513.513 395.011 502.03 416.204 485.848 435.83C469.666 455.457 449.1 471.221 424.149 483.331C399.198 495.441 371.115 501.496 339.796 501.496C308.477 501.496 269.745 493.353 240.723 477.172C211.7 460.99 189.151 438.44 172.865 409.627C156.579 380.813 148.54 347.824 148.54 310.867C148.54 273.91 156.579 240.816 172.865 211.794C189.046 182.771 211.596 160.221 240.41 143.935C269.223 127.754 302.109 119.611 339.17 119.611C376.231 119.611 421.852 130.468 452.65 152.183C483.447 173.897 503.804 203.964 513.826 242.487H412.874L412.979 242.591Z" fill="#727597"/>
<path d="M413.71 243.216C406.924 230.793 397.215 221.189 384.583 214.612C371.951 208.035 357.126 204.694 340.005 204.694C310.461 204.694 286.762 214.403 269.015 233.821C251.267 253.239 242.289 279.129 242.289 311.492C242.289 343.855 251.58 372.982 270.268 392.4C288.955 411.818 314.636 421.527 347.417 421.527C380.198 421.527 388.759 415.785 404.314 404.406C419.765 393.027 431.144 376.636 438.243 355.235H322.362V288.003H521.03V372.878C514.244 395.637 502.76 416.829 486.579 436.456C470.397 456.083 449.831 471.847 424.88 483.957C399.929 496.067 371.846 502.122 340.527 502.122C309.208 502.122 270.476 493.979 241.454 477.797C212.431 461.616 189.882 439.066 173.596 410.252C157.31 381.439 149.271 348.449 149.271 311.492C149.271 274.536 157.31 241.442 173.596 212.419C189.777 183.397 212.327 160.847 241.141 144.561C269.954 128.379 302.84 120.236 339.901 120.236C376.962 120.236 422.583 131.094 453.381 152.808C484.178 174.523 504.535 204.589 514.557 243.112H413.605L413.71 243.216Z" fill="#727597"/>
<path d="M414.441 243.948C407.655 231.525 397.946 221.92 385.314 215.343C372.682 208.766 357.857 205.425 340.736 205.425C311.192 205.425 287.493 215.134 269.746 234.552C251.998 253.97 243.02 279.861 243.02 312.224C243.02 344.587 252.311 373.714 270.999 393.132C289.686 412.55 315.367 422.259 348.148 422.259C380.929 422.259 389.49 416.517 405.045 405.137C420.496 393.758 431.875 377.368 438.974 355.966H323.093V288.734H521.761V373.609C514.975 396.368 503.491 417.561 487.31 437.187C471.128 456.814 450.562 472.578 425.611 484.688C400.66 496.798 372.577 502.853 341.258 502.853C309.939 502.853 271.207 494.71 242.185 478.529C213.162 462.347 190.613 439.797 174.327 410.984C158.041 382.17 150.002 349.18 150.002 312.224C150.002 275.267 158.041 242.173 174.327 213.151C190.508 184.128 213.058 161.578 241.872 145.292C270.685 129.111 303.57 120.968 340.632 120.968C377.693 120.968 423.314 131.825 454.112 153.54C484.909 175.254 505.266 205.321 515.288 243.843H414.336L414.441 243.948Z" fill="#727597"/>
<path d="M415.275 244.678C408.49 232.255 398.781 222.65 386.149 216.073C373.517 209.496 358.692 206.155 341.571 206.155C312.026 206.155 288.328 215.864 270.581 235.282C252.833 254.7 243.855 280.591 243.855 312.954C243.855 345.317 253.146 374.444 271.833 393.862C290.521 413.28 316.202 422.989 348.983 422.989C381.764 422.989 390.324 417.247 405.88 405.867C421.33 394.488 432.71 378.098 439.809 356.696H323.928V289.464H522.596V374.339C515.81 397.098 504.326 418.291 488.145 437.917C471.963 457.544 451.397 473.308 426.446 485.418C401.495 497.528 373.412 503.583 342.093 503.583C310.774 503.583 272.042 495.44 243.02 479.259C213.997 463.077 191.447 440.527 175.162 411.714C158.876 382.9 150.837 349.91 150.837 312.954C150.837 275.997 158.876 242.903 175.162 213.881C191.343 184.858 213.893 162.308 242.707 146.022C271.52 129.841 304.405 121.698 341.467 121.698C378.528 121.698 424.149 132.555 454.946 154.27C485.744 175.984 506.101 206.051 516.123 244.573H415.171L415.275 244.678Z" fill="#727597"/>
<path d="M416.006 245.305C409.221 232.882 399.512 223.277 386.88 216.7C374.247 210.123 359.423 206.782 342.302 206.782C312.757 206.782 289.059 216.491 271.312 235.909C253.564 255.327 244.586 281.217 244.586 313.581C244.586 345.944 253.877 375.071 272.564 394.489C291.252 413.907 316.933 423.616 349.714 423.616C382.495 423.616 391.055 417.874 406.611 406.494C422.061 395.115 433.441 378.725 440.54 357.323H324.659V290.091H523.327V374.966C516.541 397.725 505.057 418.918 488.876 438.544C472.694 458.171 452.128 473.935 427.177 486.045C402.226 498.155 374.143 504.21 342.824 504.21C311.505 504.21 272.773 496.067 243.751 479.886C214.728 463.704 192.178 441.154 175.892 412.341C159.606 383.527 151.568 350.537 151.568 313.581C151.568 276.624 159.606 243.53 175.892 214.508C192.074 185.485 214.624 162.935 243.438 146.649C272.251 130.468 305.136 122.325 342.197 122.325C379.259 122.325 424.88 133.182 455.677 154.897C486.475 176.611 506.832 206.678 516.854 245.2H415.902L416.006 245.305Z" fill="#727597"/>
<path d="M416.737 246.036C409.951 233.612 400.242 224.008 387.61 217.431C374.978 210.854 360.153 207.513 343.032 207.513C313.488 207.513 289.79 217.222 272.042 236.64C254.295 256.058 245.316 281.948 245.316 314.312C245.316 346.675 254.608 375.802 273.295 395.22C291.982 414.637 317.664 424.346 350.445 424.346C383.225 424.346 391.786 418.605 407.341 407.225C422.792 395.846 434.171 379.456 441.27 358.054H325.389V290.822H524.057V375.697C517.272 398.456 505.788 419.649 489.606 439.275C473.425 458.902 452.858 474.666 427.907 486.776C402.956 498.886 374.874 504.941 343.554 504.941C312.235 504.941 273.504 496.798 244.481 480.617C215.459 464.435 192.909 441.885 176.623 413.072C160.337 384.258 152.298 351.268 152.298 314.312C152.298 277.355 160.337 244.261 176.623 215.239C192.805 186.216 215.354 163.666 244.168 147.38C272.982 131.199 305.867 123.056 342.928 123.056C379.989 123.056 425.611 133.913 456.408 155.628C487.205 177.342 507.563 207.409 517.585 245.931H416.632L416.737 246.036Z" fill="#727597"/>
<path d="M417.572 246.766C410.787 234.343 401.078 224.738 388.445 218.161C375.813 211.584 360.989 208.244 343.868 208.244C314.323 208.244 290.625 217.953 272.878 237.37C255.13 256.788 246.152 282.679 246.152 315.042C246.152 347.405 255.443 376.532 274.13 395.95C292.817 415.368 318.499 425.077 351.28 425.077C384.061 425.077 392.621 419.335 408.177 407.956C423.627 396.576 435.007 380.186 442.106 358.785H326.225V291.553H524.893V376.428C518.107 399.186 506.623 420.379 490.442 440.006C474.26 459.632 453.694 475.396 428.743 487.507C403.792 499.617 375.709 505.672 344.39 505.672C313.071 505.672 274.339 497.529 245.317 481.347C216.294 465.166 193.744 442.616 177.458 413.802C161.172 384.988 153.134 351.999 153.134 315.042C153.134 278.085 161.172 244.991 177.458 215.969C193.64 186.947 216.19 164.397 245.003 148.111C273.817 131.929 306.702 123.786 343.763 123.786C380.824 123.786 426.446 134.643 457.243 156.358C488.041 178.073 508.398 208.139 518.42 246.662H417.468L417.572 246.766Z" fill="#727597"/>
<path d="M386.253 217.535C379.467 205.112 369.758 195.507 357.126 188.93C344.494 182.353 329.67 179.012 312.549 179.012C283.004 179.012 259.306 188.721 241.558 208.139C223.811 227.557 214.833 253.448 214.833 285.811C214.833 318.174 224.124 347.301 242.811 366.719C261.498 386.137 287.18 395.846 319.961 395.846C352.742 395.846 361.302 390.104 376.857 378.724C392.308 367.345 403.687 350.955 410.786 329.553H294.905V262.321H493.574V347.196C486.788 369.955 475.304 391.148 459.122 410.774C442.941 430.401 422.375 446.165 397.424 458.275C372.473 470.385 344.39 476.44 313.071 476.44C281.751 476.44 243.02 468.297 213.997 452.116C184.975 435.934 162.425 413.384 146.139 384.571C129.958 355.757 121.919 322.872 121.919 285.811C121.919 248.75 129.958 215.76 146.244 186.738C162.425 157.715 184.975 135.165 213.789 118.879C242.602 102.802 275.487 94.6592 312.549 94.6592C349.61 94.6592 395.231 105.517 426.028 127.231C456.826 148.946 477.183 179.012 487.205 217.535H386.253Z" fill="#FA8A5B"/>
</g>
<mask id="mask1_6321_657" style="mask-type:luminance" maskUnits="userSpaceOnUse" x="557" y="144" width="1155" height="312">
<path d="M1712 144H557V456H1712V144Z" fill="white"/>
</mask>
<g mask="url(#mask1_6321_657)">
<path d="M651.122 245.879C662.888 239.156 675.661 235.458 689.78 235.458V305.714H671.628C655.156 305.714 642.719 309.412 634.315 316.471C625.911 323.53 621.877 335.968 621.877 353.784V453.957H555.655V237.812H621.877V273.78C629.609 262.014 639.357 252.602 650.786 245.543L651.122 245.879Z" fill="#727597"/>
<path d="M787.936 237.812V453.958H721.714V237.812H787.936Z" fill="#727597"/>
<path d="M944.583 292.94H908.95V453.957H842.729V292.94H818.862V237.812H842.729V231.761C842.729 205.205 850.46 185.036 865.587 171.254C880.714 157.471 903.236 150.412 932.481 150.412C961.726 150.412 940.885 150.412 943.238 150.748V206.886C930.464 206.213 921.724 207.894 916.682 212.264C911.64 216.634 908.95 224.365 908.95 235.795V237.812H944.583V292.94Z" fill="#727597"/>
<path d="M974.836 286.89C983.24 270.083 994.669 257.309 1009.12 248.233C1023.58 239.157 1039.71 234.787 1057.53 234.787C1075.35 234.787 1086.1 237.812 1097.53 244.199C1108.96 250.25 1117.7 258.653 1124.09 268.738V238.148H1190.31V454.294H1124.09V423.704C1117.7 433.788 1108.62 441.856 1097.2 448.243C1085.77 454.294 1072.32 457.655 1057.19 457.655C1042.07 457.655 1023.58 452.949 1009.12 443.873C994.669 434.797 983.24 421.687 974.836 404.879C966.432 388.072 962.399 368.575 962.399 346.053C962.399 323.531 966.432 304.37 974.836 287.562V286.89ZM1110.31 306.723C1101.23 297.311 1090.14 292.269 1076.69 292.269C1063.24 292.269 1052.49 296.975 1043.08 306.387C1034 315.799 1029.29 328.909 1029.29 345.381C1029.29 361.852 1034 374.962 1043.08 384.71C1052.15 394.459 1063.24 399.165 1076.69 399.165C1090.14 399.165 1100.89 394.459 1110.31 384.71C1119.38 375.298 1124.09 362.188 1124.09 345.717C1124.09 329.245 1119.38 316.135 1110.31 306.723Z" fill="#727597"/>
<path d="M1430.66 259.998C1445.78 276.469 1453.18 298.991 1453.18 327.564V453.957H1387.29V336.64C1387.29 322.186 1383.6 311.093 1376.2 303.025C1368.81 294.957 1358.72 290.924 1345.95 290.924C1333.17 290.924 1323.09 294.957 1315.69 303.025C1308.3 311.093 1304.6 322.186 1304.6 336.64V453.957H1238.38V237.812H1304.6V266.384C1311.32 256.972 1320.4 249.241 1331.83 243.862C1343.26 238.148 1356.03 235.458 1370.15 235.458C1395.36 235.458 1415.53 243.526 1430.66 259.998Z" fill="#727597"/>
<path d="M726.756 205.205C719.361 198.482 715.663 189.742 715.663 179.994C715.663 170.245 719.361 161.169 726.756 154.11C734.152 147.387 743.564 143.689 755.329 143.689C767.095 143.689 776.171 147.051 783.566 154.11C790.961 160.833 794.659 169.573 794.659 179.994C794.659 190.415 790.961 198.482 783.566 205.205C776.171 211.928 766.758 215.626 755.329 215.626C743.9 215.626 734.152 212.264 726.756 205.205Z" fill="#727597"/>
<path d="M1540.58 443.537C1523.77 434.461 1510.33 421.687 1500.58 404.879C1490.83 388.072 1486.12 368.575 1486.12 346.053C1486.12 323.531 1491.17 304.37 1500.91 287.226C1510.66 270.419 1524.11 257.309 1541.25 248.233C1558.4 239.157 1577.56 234.787 1598.73 234.787C1619.91 234.787 1639.07 239.157 1656.22 248.233C1673.36 257.309 1686.81 270.083 1696.55 287.226C1706.3 304.034 1711.34 323.531 1711.34 346.053C1711.34 368.575 1706.3 387.736 1696.55 404.879C1686.47 421.687 1673.02 434.797 1655.88 443.873C1638.74 452.949 1619.57 457.319 1598.4 457.319C1577.22 457.319 1558.06 452.949 1541.25 443.873L1540.58 443.537ZM1630 385.719C1638.74 376.306 1643.44 363.197 1643.44 345.717C1643.44 328.237 1639.07 315.127 1630.33 305.715C1621.59 296.302 1611.17 291.932 1598.4 291.932C1585.62 291.932 1574.87 296.639 1566.13 305.715C1557.72 314.791 1553.35 328.237 1553.35 345.717C1553.35 363.197 1557.39 376.306 1565.79 385.719C1574.19 395.131 1584.62 399.501 1597.39 399.501C1610.16 399.501 1620.92 394.795 1629.66 385.719H1630Z" fill="#727597"/>
</g>
</g>
<defs>
<linearGradient id="paint0_linear_6321_657" x1="0" y1="300" x2="1832" y2="300" gradientUnits="userSpaceOnUse">
<stop stop-color="#9495A1"/>
<stop offset="1" stop-color="#FAB091"/>
</linearGradient>
<clipPath id="clip0_6321_657">
<rect width="1832" height="600" fill="white"/>
</clipPath>
</defs>
</svg>
