<svg width="558" height="558" viewBox="0 0 558 558" fill="none" xmlns="http://www.w3.org/2000/svg">
<g clip-path="url(#clip0_7_344)">
<g clip-path="url(#clip1_7_344)">
<path d="M0 0H558V558H0V0Z" fill="#F7DF1E"/>
<path d="M146.718 466.305L189.419 440.463C197.658 455.069 205.152 467.427 223.127 467.427C240.358 467.427 251.224 460.688 251.224 434.471V256.176H303.66V435.212C303.66 489.523 271.824 514.245 225.375 514.245C183.427 514.245 159.077 492.52 146.716 466.301M332.142 460.686L374.838 435.966C386.079 454.321 400.687 467.805 426.529 467.805C448.259 467.805 462.113 456.941 462.113 441.958C462.113 423.98 447.88 417.611 423.907 407.126L410.801 401.503C372.968 385.401 347.873 365.174 347.873 322.474C347.873 283.143 377.837 253.177 424.659 253.177C457.995 253.177 481.968 264.79 499.196 295.13L458.366 321.351C449.375 305.246 439.64 298.879 424.657 298.879C409.299 298.879 399.56 308.617 399.56 321.351C399.56 337.082 409.299 343.453 431.772 353.192L444.88 358.809C489.455 377.914 514.55 397.39 514.55 441.21C514.55 488.409 477.469 514.252 427.652 514.252C378.96 514.252 347.496 491.029 332.14 460.688" fill="black"/>
</g>
</g>
<defs>
<clipPath id="clip0_7_344">
<rect width="558" height="558" rx="90" fill="white"/>
</clipPath>
<clipPath id="clip1_7_344">
<rect width="558" height="558" fill="white"/>
</clipPath>
</defs>
</svg>
