<svg width="558" height="558" viewBox="0 0 558 558" fill="none" xmlns="http://www.w3.org/2000/svg">
<rect width="558" height="558" rx="90" fill="white"/>
<g clip-path="url(#clip0_7_812)">
<path d="M489.938 208.688V349.312H461.812L433.688 264.938V349.312H405.562V208.688H433.688L461.812 293.062V208.688H489.938Z" fill="black"/>
<path d="M354.002 349.312H316.498C310.284 349.305 304.328 346.834 299.934 342.441C295.541 338.047 293.07 332.091 293.062 325.877V232.123C293.07 225.909 295.541 219.953 299.934 215.559C304.328 211.166 310.284 208.695 316.498 208.688H354.002C360.216 208.695 366.172 211.166 370.566 215.559C374.959 219.953 377.43 225.909 377.438 232.123V325.877C377.43 332.091 374.959 338.047 370.566 342.441C366.172 346.834 360.216 349.305 354.002 349.312ZM321.188 321.188H349.312V236.812H321.188V321.188Z" fill="black"/>
<path d="M241.502 349.312H180.562V321.188H236.812V293.062H208.688C201.231 293.055 194.081 290.09 188.808 284.817C183.536 279.544 180.57 272.394 180.562 264.938V232.123C180.57 225.909 183.041 219.953 187.434 215.559C191.828 211.166 197.784 208.695 203.998 208.688H264.938V236.812H208.688V264.938H236.812C244.269 264.945 251.419 267.911 256.692 273.183C261.964 278.456 264.93 285.606 264.938 293.062V325.877C264.93 332.091 262.459 338.047 258.066 342.441C253.672 346.834 247.716 349.305 241.502 349.312Z" fill="black"/>
<path d="M129.002 349.312H91.4977C85.2844 349.305 79.3277 346.834 74.9343 342.441C70.5409 338.047 68.0696 332.091 68.0625 325.877V293.062H96.1875V321.188H124.312V208.688H152.438V325.877C152.43 332.091 149.959 338.047 145.566 342.441C141.172 346.834 135.216 349.305 129.002 349.312Z" fill="black"/>
</g>
<defs>
<clipPath id="clip0_7_812">
<rect width="450" height="450" fill="white" transform="translate(54 54)"/>
</clipPath>
</defs>
</svg>
