<svg width="1258" height="379" viewBox="0 0 1258 379" fill="none" xmlns="http://www.w3.org/2000/svg">
<rect width="1257.68" height="379" rx="77" fill="white"/>
<g clip-path="url(#clip0_6320_580)">
<path d="M816.525 74H1014.32V110.671H935.779V302.979H896.509V110.671H816.525V74ZM490.237 74V110.671H331.425V169.576H459.341V205.959H331.425V266.596H490.237V302.979H292.444V74H490.815H490.237ZM589.279 74H537.881L722.104 303.268H773.79L681.39 188.634L773.79 74.2888H722.104L655.691 156.871L589.279 74.2888V74ZM642.12 237.721L616.132 205.959L537.881 303.268H589.279L642.12 237.721Z" fill="black"/>
<path d="M293.888 302.979L109.088 74H60V302.979H99.27V123.087L244.223 302.979H293.888ZM1023.27 301.824C1020.38 301.824 1018.07 300.669 1016.05 298.936C1014.03 297.204 1012.88 294.316 1012.88 291.429C1012.88 288.541 1013.74 286.231 1015.76 284.21C1017.78 282.189 1020.38 281.322 1023.27 281.322C1026.16 281.322 1028.47 282.189 1030.49 284.21C1032.18 285.753 1033.28 287.838 1033.59 290.106C1033.91 292.373 1033.43 294.679 1032.22 296.626C1031.32 298.14 1030.05 299.407 1028.54 300.314C1027.03 301.22 1025.32 301.739 1023.56 301.824H1023.27ZM1090.26 205.092H1107.58V272.371C1107.58 278.435 1106.43 283.921 1103.83 288.252C1101.23 292.611 1097.42 296.121 1092.86 298.359C1088.24 300.669 1082.75 302.112 1076.4 302.112C1070.63 302.112 1065.72 300.957 1061.1 299.225C1056.48 297.492 1053.01 294.027 1050.41 289.985C1047.81 286.231 1046.37 281.322 1046.37 275.547H1063.7C1063.98 277.857 1064.56 280.167 1065.72 281.9C1066.87 283.632 1068.6 285.365 1070.34 286.231C1072.36 287.386 1074.67 287.675 1077.27 287.675C1080.15 287.675 1082.46 287.097 1084.2 285.942C1086.23 284.726 1087.85 282.911 1088.82 280.745C1089.68 278.435 1090.26 275.547 1090.26 272.082V205.381V205.092ZM1179.48 231.369C1179.31 229.446 1178.7 227.589 1177.7 225.938C1176.7 224.286 1175.33 222.885 1173.71 221.84C1169.99 219.553 1165.66 218.446 1161.29 218.664C1157.54 218.664 1154.36 219.241 1151.76 220.107C1149.17 221.262 1147.14 222.995 1145.99 224.727C1144.68 226.332 1143.89 228.3 1143.74 230.366C1143.58 232.432 1144.07 234.496 1145.12 236.277C1145.99 237.721 1147.14 238.876 1148.88 239.742L1154.07 242.63L1159.85 244.074L1169.09 246.384C1172.84 247.25 1176.31 248.405 1179.77 249.849C1183.08 251.135 1186.19 252.885 1189.01 255.046C1191.8 257.302 1194.03 260.167 1195.53 263.422C1197.03 266.676 1197.77 270.232 1197.68 273.815C1197.68 279.59 1196.23 284.499 1193.34 288.541C1190.16 293.056 1185.75 296.563 1180.64 298.647C1175.44 300.957 1168.8 302.112 1161 302.112C1153.5 302.112 1146.86 300.957 1141.37 298.647C1135.59 296.337 1131.55 292.872 1128.38 288.541C1125.16 283.761 1123.45 278.13 1123.47 272.371H1140.79C1140.89 275.359 1141.92 278.242 1143.73 280.621C1145.54 283 1148.05 284.759 1150.9 285.654C1153.78 286.809 1157.25 287.386 1160.72 287.386C1164.47 287.386 1167.93 286.809 1170.82 285.654C1173.71 284.499 1176.02 282.766 1177.75 280.745C1179.25 278.746 1180.06 276.314 1180.06 273.815C1180.06 271.216 1179.48 269.195 1178.04 267.462C1176.18 265.887 1174.15 264.53 1171.98 263.42L1162.74 260.532L1151.76 257.645C1143.68 255.624 1137.33 252.736 1132.71 248.405C1130.4 246.349 1128.58 243.805 1127.38 240.958C1126.19 238.111 1125.64 235.032 1125.78 231.946C1125.73 226.717 1127.46 221.627 1130.68 217.509C1133.79 213.037 1138.09 209.534 1143.1 207.402C1148.88 205.092 1154.65 203.937 1161.58 203.937C1168.22 203.937 1174.29 205.092 1179.48 207.402C1184.68 209.712 1188.72 213.177 1191.9 217.22C1194.79 221.262 1196.23 225.882 1196.23 231.657H1179.48V231.369Z" fill="black"/>
</g>
<defs>
<clipPath id="clip0_6320_580">
<rect width="1137.68" height="231" fill="white" transform="translate(60 74)"/>
</clipPath>
</defs>
</svg>
