<svg width="558" height="558" viewBox="0 0 558 558" fill="none" xmlns="http://www.w3.org/2000/svg">
<rect width="558" height="558" rx="90" fill="white"/>
<path d="M278.652 316.357C299.434 316.357 316.282 299.509 316.282 278.726C316.282 257.944 299.434 241.096 278.652 241.096C257.869 241.096 241.021 257.944 241.021 278.726C241.021 299.509 257.869 316.357 278.652 316.357Z" fill="#00D8FF"/>
<path d="M278.652 202.222C329.166 202.222 376.098 209.472 411.478 221.646C454.108 236.32 480.322 258.568 480.322 278.714C480.322 299.706 452.541 323.346 406.765 338.505C372.156 349.971 326.604 355.965 278.652 355.965C229.481 355.965 182.934 350.344 147.927 338.381C103.643 323.246 76.9688 299.308 76.9688 278.714C76.9688 258.73 102.002 236.656 144.035 222.007C179.551 209.633 227.64 202.222 278.652 202.222Z" stroke="#00D8FF" stroke-width="18.0002" stroke-miterlimit="10"/>
<path d="M212.059 240.698C237.291 196.937 267.025 159.903 295.254 135.342C329.265 105.745 361.636 94.1551 379.083 104.216C397.264 114.699 403.868 150.576 394.13 197.819C386.768 233.535 369.209 275.978 345.245 317.526C320.685 360.118 292.555 397.637 264.712 421.986C229.481 452.79 195.407 463.932 177.574 453.648C160.264 443.662 153.648 410.956 161.943 367.219C168.956 330.235 186.565 284.882 212.059 240.698Z" stroke="#00D8FF" stroke-width="18.0002" stroke-miterlimit="10"/>
<path d="M212.12 317.613C186.814 273.889 169.578 229.643 162.39 192.92C153.735 148.673 159.853 114.836 177.288 104.75C195.457 94.2297 229.829 106.429 265.893 138.451C293.164 162.664 321.157 199.075 345.183 240.586C369.818 283.141 388.285 326.243 395.461 362.519C404.551 408.431 397.189 443.513 379.369 453.822C362.071 463.833 330.434 453.237 296.684 424.2C268.181 399.664 237.676 361.76 212.12 317.613Z" stroke="#00D8FF" stroke-width="18.0002" stroke-miterlimit="10"/>
</svg>
