<svg width="1968" height="379" viewBox="0 0 1968 379" fill="none" xmlns="http://www.w3.org/2000/svg">
<rect width="1968" height="379" rx="77" fill="white"/>
<path fill-rule="evenodd" clip-rule="evenodd" d="M250.143 74C199.435 74 167.75 99.2014 155.068 149.604C174.084 124.403 196.268 114.954 221.618 121.251C236.082 124.842 246.424 135.275 257.863 146.825C276.507 165.632 298.086 187.399 345.21 187.399C395.911 187.399 427.603 162.197 440.278 111.802C421.269 137.003 399.086 146.452 373.735 140.148C359.264 136.556 348.921 126.124 337.483 114.581C318.839 95.7587 297.267 74 250.143 74ZM155.068 187.399C104.367 187.399 72.6752 212.6 60 263.003C79.0165 237.801 101.2 228.353 126.543 234.649C141.014 238.241 151.357 248.673 162.795 260.223C181.439 279.031 203.011 300.797 250.143 300.797C300.844 300.797 332.535 275.603 345.21 225.201C326.194 250.402 304.011 259.851 278.66 253.554C264.197 249.955 253.854 239.523 242.415 227.98C223.772 209.172 202.192 187.399 155.068 187.399Z" fill="#38BDF8"/>
<path fill-rule="evenodd" clip-rule="evenodd" d="M630.391 169.569H597.209V233.407C597.209 250.434 608.446 250.166 630.391 249.101V274.905C585.964 280.226 568.304 267.99 568.304 233.407V169.569H543.684V141.902H568.304V106.179L597.209 97.6614V141.902H630.391V169.569ZM756.874 141.902H785.772V274.905H756.874V255.755C746.703 269.846 730.913 278.363 710.041 278.363C673.647 278.363 643.408 247.774 643.408 208.4C643.408 168.772 673.647 138.444 710.041 138.444C730.913 138.444 746.703 146.954 756.874 160.791V141.902ZM714.594 250.963C738.677 250.963 756.874 233.139 756.874 208.4C756.874 183.66 738.677 165.844 714.594 165.844C690.51 165.844 672.313 183.668 672.313 208.4C672.313 233.139 690.51 250.963 714.594 250.963ZM833.939 121.954C823.775 121.954 815.481 113.444 815.481 103.6C815.505 98.7219 817.46 94.0517 820.92 90.6119C824.379 87.1721 829.06 85.243 833.939 85.247C838.819 85.241 843.502 87.1692 846.963 90.6092C850.424 94.0492 852.38 98.7207 852.404 103.6C852.404 113.436 844.11 121.954 833.939 121.954ZM819.49 274.905V141.902H848.395V274.905H819.49ZM881.845 274.905V80.709H910.743V274.898H881.845V274.905ZM1098.34 141.902H1128.84L1086.83 274.905H1058.46L1030.63 185.263L1002.53 274.905H974.171L932.151 141.902H962.658L988.619 233.668L1016.72 141.902H1044.28L1072.11 233.668L1098.34 141.902ZM1164.7 121.954C1154.53 121.954 1146.24 113.444 1146.24 103.6C1146.26 98.7207 1148.22 94.0492 1151.68 90.6092C1155.14 87.1692 1159.82 85.241 1164.7 85.247C1169.58 85.241 1174.26 87.1692 1177.72 90.6092C1181.19 94.0492 1183.14 98.7207 1183.17 103.6C1183.17 113.436 1174.87 121.954 1164.7 121.954ZM1150.25 274.905V141.902H1179.15V274.905H1150.25ZM1282.98 138.444C1312.95 138.444 1334.36 158.66 1334.36 193.243V274.898H1305.46V196.164C1305.46 175.948 1293.69 165.315 1275.49 165.315C1256.49 165.315 1241.5 176.485 1241.5 203.616V274.905H1212.6V141.902H1241.5V158.929C1250.33 145.098 1264.78 138.444 1282.98 138.444ZM1471.37 88.7046H1500.28V274.898H1471.37V255.747C1461.21 269.846 1445.42 278.356 1424.55 278.356C1388.15 278.356 1357.91 247.767 1357.91 208.392C1357.91 168.765 1388.15 138.437 1424.55 138.437C1445.42 138.437 1461.21 146.946 1471.37 160.784V88.7046ZM1429.09 250.963C1453.18 250.963 1471.37 233.139 1471.37 208.4C1471.37 183.66 1453.18 165.844 1429.09 165.844C1405.01 165.844 1386.81 183.668 1386.81 208.4C1386.81 233.139 1405.01 250.963 1429.09 250.963ZM1597.15 278.363C1556.74 278.363 1526.5 247.774 1526.5 208.4C1526.5 168.772 1556.74 138.444 1597.15 138.444C1623.37 138.444 1646.12 152.006 1656.82 172.759L1631.93 187.125C1626.05 174.622 1612.94 166.641 1596.88 166.641C1573.33 166.641 1555.4 184.465 1555.4 208.4C1555.4 232.342 1573.33 250.166 1596.88 250.166C1612.94 250.166 1626.05 241.917 1632.47 229.682L1657.36 243.78C1646.12 264.794 1623.37 278.363 1597.15 278.363ZM1704.99 178.608C1704.99 202.819 1776.98 188.184 1776.98 237.401C1776.98 264.004 1753.69 278.363 1724.79 278.363C1698.04 278.363 1678.77 266.388 1670.2 247.238L1695.09 232.878C1699.37 244.846 1710.08 252.029 1724.79 252.029C1737.64 252.029 1747.54 247.774 1747.54 237.126C1747.54 213.459 1675.55 226.761 1675.55 179.145C1675.55 154.137 1697.23 138.444 1724.53 138.444C1746.47 138.444 1764.67 148.556 1774.03 166.112L1749.68 179.674C1744.86 169.301 1735.49 164.51 1724.53 164.51C1714.09 164.51 1704.99 169.033 1704.99 178.608ZM1828.36 178.608C1828.36 202.819 1900.34 188.184 1900.34 237.401C1900.34 264.004 1877.06 278.363 1848.16 278.363C1821.4 278.363 1802.13 266.388 1793.57 247.238L1818.45 232.878C1822.74 244.846 1833.44 252.029 1848.16 252.029C1861 252.029 1870.91 247.774 1870.91 237.126C1870.91 213.459 1798.92 226.761 1798.92 179.145C1798.92 154.137 1820.59 138.444 1847.89 138.444C1869.83 138.444 1888.03 148.556 1897.4 166.112L1873.04 179.674C1868.23 169.301 1858.86 164.51 1847.89 164.51C1837.46 164.51 1828.36 169.033 1828.36 178.608Z" fill="black"/>
</svg>
