<svg width="558" height="558" viewBox="0 0 558 558" fill="none" xmlns="http://www.w3.org/2000/svg">
<rect width="558" height="558" rx="90" fill="white"/>
<path d="M474.238 140.428L289.431 470.893C285.615 477.714 275.813 477.755 271.939 470.966L83.4692 140.459C79.2505 133.059 85.5758 124.097 93.9599 125.595L278.966 158.664C280.146 158.875 281.354 158.873 282.534 158.659L463.67 125.643C472.026 124.12 478.384 133.014 474.238 140.428Z" fill="url(#paint0_linear_7_784)"/>
<path d="M367.093 82.2221L230.331 109.02C229.238 109.233 228.247 109.805 227.514 110.643C226.782 111.482 226.348 112.54 226.282 113.652L217.87 255.736C217.673 259.083 220.746 261.681 224.011 260.927L262.088 252.141C265.652 251.318 268.871 254.457 268.138 258.038L256.826 313.435C256.064 317.161 259.564 320.351 263.205 319.246L286.723 312.099C290.37 310.992 293.872 314.19 293.102 317.921L275.124 404.935C273.999 410.378 281.239 413.345 284.258 408.679L286.275 405.563L397.716 183.161C399.582 179.438 396.366 175.192 392.273 175.981L353.081 183.545C349.397 184.255 346.264 180.826 347.303 177.221L372.884 88.5432C373.925 84.9319 370.78 81.4993 367.093 82.2221Z" fill="url(#paint1_linear_7_784)"/>
<defs>
<linearGradient id="paint0_linear_7_784" x1="78.8671" y1="113.783" x2="308.862" y2="426.134" gradientUnits="userSpaceOnUse">
<stop stop-color="#41D1FF"/>
<stop offset="1" stop-color="#BD34FE"/>
</linearGradient>
<linearGradient id="paint1_linear_7_784" x1="268.337" y1="89.4966" x2="309.942" y2="374.902" gradientUnits="userSpaceOnUse">
<stop stop-color="#FFEA83"/>
<stop offset="0.0833" stop-color="#FFDD35"/>
<stop offset="1" stop-color="#FFA800"/>
</linearGradient>
</defs>
</svg>
